<?xml version="1.0" standalone="no"?>
<!DOCTYPE svg PUBLIC "-//W3C//DTD SVG 20010904//EN"
 "http://www.w3.org/TR/2001/REC-SVG-20010904/DTD/svg10.dtd">
<svg version="1.0" xmlns="http://www.w3.org/2000/svg"
 width="350.000000pt" height="350.000000pt" viewBox="0 0 350.000000 350.000000"
 preserveAspectRatio="xMidYMid meet">
<metadata>
Created by potrace 1.15, written by Peter Selinger 2001-2017
</metadata>
<g transform="translate(0.000000,350.000000) scale(0.100000,-0.100000)"
fill="#000000" stroke="none">
<path d="M1550 3145 c-114 -17 -160 -29 -266 -66 -480 -167 -840 -600 -919
-1104 -21 -130 -16 -397 9 -506 64 -283 189 -511 386 -709 163 -163 347 -276
559 -344 165 -53 226 -61 436 -61 210 0 271 9 431 60 485 158 843 561 949
1070 41 192 28 458 -30 660 -112 387 -406 726 -771 890 -246 109 -526 149
-784 110z m380 -270 c364 -60 678 -291 844 -623 68 -135 116 -343 116 -502 0
-424 -256 -829 -643 -1018 -207 -102 -454 -136 -688 -96 -226 39 -418 137
-587 298 -166 159 -263 326 -323 556 -25 94 -36 306 -21 415 51 373 285 698
625 865 217 107 446 142 677 105z"/>
<path d="M1348 2001 l-413 -410 110 -110 110 -111 302 302 303 303 303 -303
302 -302 110 110 110 111 -412 410 -411 410 -414 -410z"/>
</g>
</svg>
